<svg width="44" height="44" viewBox="0 0 44 44" fill="none" xmlns="http://www.w3.org/2000/svg">
<path d="M27.159 22.4406C28.7121 23.211 28.0417 25.49 26.674 26.5555C25.817 27.2232 24.7007 27.9279 23.117 28.7988C22.4221 29.1809 21.5777 29.1809 20.8828 28.7988C19.2991 27.9279 18.1828 27.2232 17.3258 26.5555C15.9581 25.49 15.2877 23.211 16.8408 22.4406C17.637 22.0456 18.7384 21.9711 20.173 21.8254C21.3861 21.7022 22.6137 21.7022 23.8268 21.8254C25.2614 21.9711 26.3628 22.0456 27.159 22.4406Z" fill="#FA96B7"/>
<path d="M12 14C12 16.7614 11.7614 19 7 19C4.23858 19 2 16.7614 2 14C2 10.2386 3.23858 9 7 9C9.76142 9 12 11.2386 12 14Z" fill="#222222"/>
<path d="M32 14C32 16.7614 32.2386 19 37 19C39.7614 19 42 16.7614 42 14C42 10.2386 40.7614 9 37 9C34.2386 9 32 11.2386 32 14Z" fill="#222222"/>
<path d="M40 13C40 13.5523 40 14 39 14C38.4477 14 38 13.5523 38 13C38 12.4477 38 12 39 12C39.5523 12 40 12.4477 40 13Z" fill="white"/>
<path d="M12 33L14.4133 33.3448C15.1356 33.4479 15.867 33.4718 16.5945 33.4158L17.292 33.3622C18.2589 33.2878 19.2098 33.0732 20.1148 32.7251L22 32L23.8852 32.7251C24.7902 33.0732 25.7411 33.2878 26.708 33.3622L27.4055 33.4158C28.133 33.4718 28.8644 33.4479 29.5867 33.3448L32 33C32 33.2986 31.8089 33.5637 31.5257 33.6581L30.5 34L24.2904 35.4611C22.784 35.8155 21.216 35.8155 19.7096 35.4611L13.5 34L12.4743 33.6581C12.1911 33.5637 12 33.2986 12 33Z" fill="#222222"/>
<path d="M10 13C10 13.5523 10 14 9 14C8.44772 14 8 13.5523 8 13C8 12.4477 8 12 9 12C9.55228 12 10 12.4477 10 13Z" fill="white"/>
</svg>
